<svg xmlns="http://www.w3.org/2000/svg" width="1600" height="1000" viewBox="0 0 1600 1000">
  <defs>
    <linearGradient id="g1" x1="0" y1="0" x2="1" y2="1">
      <stop offset="0%" stop-color="#e9f2ff"/>
      <stop offset="100%" stop-color="#d8e7ff"/>
    </linearGradient>
    <pattern id="grid" width="40" height="40" patternUnits="userSpaceOnUse">
      <path d="M 40 0 L 0 0 0 40" fill="none" stroke="#b9d0f7" stroke-width="1" opacity="0.5"/>
    </pattern>
  </defs>

  <rect width="1600" height="1000" fill="url(#g1)"/>
  <rect width="1600" height="1000" fill="url(#grid)"/>

  <g opacity="0.4" stroke="#7aa8ea" stroke-width="2" fill="none">
    <path d="M100 820 L340 620 L560 720 L860 500 L1180 620 L1450 420"/>
    <path d="M120 860 L280 760 L460 790 L690 640 L980 700 L1320 560"/>
  </g>

  <g opacity="0.35" fill="#9ec0f5">
    <rect x="170" y="560" width="90" height="260"/>
    <rect x="300" y="500" width="90" height="320"/>
    <rect x="430" y="450" width="90" height="370"/>
    <rect x="560" y="520" width="90" height="300"/>
  </g>

  <g opacity="0.22" stroke="#5b8fda" stroke-width="3" fill="none">
    <circle cx="1240" cy="280" r="120"/>
    <circle cx="1240" cy="280" r="80"/>
    <circle cx="1240" cy="280" r="40"/>
    <line x1="1120" y1="280" x2="1360" y2="280"/>
    <line x1="1240" y1="160" x2="1240" y2="400"/>
  </g>

  <text x="70" y="110" font-family="Arial, sans-serif" font-size="54" fill="#2a5ea8" opacity="0.22">Concrete Mix Design Dashboard</text>
</svg>
